# xmcd
#
# Track frame offsets:
#	150
#	17470
#	39177
#	58417
#	74300
#	93940
#	112610
#	129707
#	148625
#	165427
#	183445
#	202702
#	223795
#	244192
#	262825
#
# Disc length: 3791 seconds
#
# Revision: 1
# Processed by: cddbd v1.5.1PL0 Copyright (c) Steve Scherf et al.
# Submitted via: CDex 1.50Beta5
#
DISCID=c50ecd0f
DTITLE=ブレッド&バター - SUPER BEST 2000
DYEAR=1995
DGENRE=
TTITLE0=マリエ
TTITLE1=あの頃のまま
TTITLE2=ピンク・シャドウ
TTITLE3=ばらけたイニシャル
TTITLE4=夢がとぶ
TTITLE5=さよならの贈り物
TTITLE6=Remember My Love
TTITLE7=特別な気持ちで
TTITLE8=センチメンタル・フレンド
TTITLE9=ワイオミング・ガール
TTITLE10=君がいた夏
TTITLE11=奇蹟のビーナス
TTITLE12=ETERNAL FRIEND
TTITLE13=僕の知らない夏
TTITLE14=London-Paris-New York-湘南
EXTD=
EXTT0=
EXTT1=
EXTT2=
EXTT3=
EXTT4=
EXTT5=
EXTT6=
EXTT7=
EXTT8=
EXTT9=
EXTT10=
EXTT11=
EXTT12=
EXTT13=
EXTT14=
PLAYORDER=
